<svg width="21" height="22" viewBox="0 0 21 22" fill="none" xmlns="http://www.w3.org/2000/svg">
<path d="M10.2715 8.0127H12.2715V5.0127H15.2715V3.0127H12.2715V0.0126953H10.2715V3.0127H7.27148V5.0127H10.2715M6.27148 17.0127C5.17148 17.0127 4.27148 17.9127 4.27148 19.0127C4.27148 20.1127 5.17148 21.0127 6.27148 21.0127C7.37148 21.0127 8.27148 20.1127 8.27148 19.0127C8.27148 17.9127 7.37148 17.0127 6.27148 17.0127ZM16.2715 17.0127C15.1715 17.0127 14.2715 17.9127 14.2715 19.0127C14.2715 20.1127 15.1715 21.0127 16.2715 21.0127C17.3715 21.0127 18.2715 20.1127 18.2715 19.0127C18.2715 17.9127 17.3715 17.0127 16.2715 17.0127ZM6.47148 13.8127V13.7127L7.37148 12.0127H14.7715C15.4715 12.0127 16.1715 11.6127 16.4715 11.0127L20.3715 4.0127L18.6715 3.0127L14.7715 10.0127H7.77148L3.57148 1.0127H0.271484V3.0127H2.27148L5.87148 10.6127L4.47148 13.0127C4.37148 13.3127 4.27148 13.6127 4.27148 14.0127C4.27148 15.1127 5.17148 16.0127 6.27148 16.0127H18.2715V14.0127H6.67148C6.57148 14.0127 6.47148 13.9127 6.47148 13.8127Z" fill="white"/>
</svg>
