<svg width="27" height="24" viewBox="0 0 27 24" fill="none" xmlns="http://www.w3.org/2000/svg">
<g clip-path="url(#clip0_15566_116)">
<path d="M11.2281 17.709C9.70065 17.709 8.47272 18.8845 8.47272 20.3119C8.47272 21.7673 9.70065 22.9428 11.2281 22.9428C12.7555 22.9428 13.9834 21.7673 13.9834 20.3119C13.9834 18.8565 12.7555 17.709 11.2281 17.709ZM11.2281 21.2635C10.689 21.2635 10.2697 20.8437 10.2697 20.3119C10.2697 19.8081 10.689 19.3883 11.2281 19.3883C11.7672 19.3883 12.1864 19.8081 12.1864 20.3119C12.1864 20.8157 11.7672 21.2635 11.2281 21.2635Z" fill="#9758A6"/>
<path d="M22.2191 17.709C20.6917 17.709 19.4637 18.8845 19.4637 20.3119C19.4637 21.7673 20.6917 22.9428 22.2191 22.9428C23.7465 22.9428 24.9745 21.7673 24.9745 20.3119C24.9445 18.8565 23.7166 17.709 22.2191 17.709ZM22.2191 21.2635C21.68 21.2635 21.2607 20.8437 21.2607 20.3119C21.2607 19.8081 21.68 19.3883 22.2191 19.3883C22.7582 19.3883 23.1775 19.8081 23.1775 20.3119C23.1475 20.8157 22.7282 21.2635 22.2191 21.2635Z" fill="#9758A6"/>
<path d="M25.9928 4.27463C25.8131 4.05073 25.5436 3.93877 25.274 3.93877H7.51401L7.12467 2.76326C6.76528 1.69971 5.747 1 4.54902 1H1.76372C1.25458 1 0.865234 1.36385 0.865234 1.83965C0.865234 2.31545 1.25458 2.6793 1.76372 2.6793H4.54902C4.93836 2.6793 5.29775 2.90321 5.41755 3.26705L8.68204 12.895L8.65209 12.979C8.26275 13.8466 8.3526 14.8262 8.89169 15.6379C9.46073 16.4216 10.3892 16.8974 11.4074 16.8974H23.6867C24.1959 16.8974 24.5852 16.5335 24.5852 16.0577C24.5852 15.5819 24.1959 15.2181 23.6867 15.2181H11.4074C10.9882 15.2181 10.6288 15.0222 10.4191 14.7143C10.2095 14.4064 10.1496 14.0146 10.2993 13.6787H20.8116C22.2491 13.6787 23.507 12.8111 23.9563 11.5236L26.1426 5.03032C26.2025 4.77842 26.1426 4.49854 25.9928 4.27463ZM20.7816 11.9994H10.2394L8.08305 5.61807H24.0461L22.2491 11.0198C22.0095 11.6076 21.4405 11.9994 20.7816 11.9994Z" fill="#9758A6"/>
</g>
<defs>
<clipPath id="clip0_15566_116">
<rect width="25.3003" height="24" fill="white" transform="translate(0.865234)"/>
</clipPath>
</defs>
</svg>
