<svg width="20" height="19" viewBox="0 0 20 19" fill="none" xmlns="http://www.w3.org/2000/svg">
<path d="M18 4C18.58 4 19.05 4.2 19.42 4.59C19.8 5 20 5.45 20 6V17C20 17.55 19.8 18 19.42 18.41C19.05 18.8 18.58 19 18 19H2C1.42 19 0.95 18.8 0.58 18.41C0.2 18 0 17.55 0 17V6C0 5.45 0.2 5 0.58 4.59C0.95 4.2 1.42 4 2 4H6V2C6 1.42 6.2 0.95 6.58 0.58C6.95 0.2 7.42 0 8 0H12C12.58 0 13.05 0.2 13.42 0.58C13.8 0.95 14 1.42 14 2V4H18ZM2 6V17H18V6H2ZM12 4V2H8V4H12ZM8.46 15.5L15.05 8.91L13.64 7.5L8.46 12.67L6.37 10.59L4.96 12L8.46 15.5Z" fill="white"/>
</svg>
