<svg width="21" height="21" viewBox="0 0 21 21" fill="none" xmlns="http://www.w3.org/2000/svg">
<path d="M16.3896 16.2263C15.2796 16.2263 14.3896 17.1163 14.3896 18.2263C14.3896 18.7568 14.6004 19.2655 14.9754 19.6405C15.3505 20.0156 15.8592 20.2263 16.3896 20.2263C16.9201 20.2263 17.4288 20.0156 17.8039 19.6405C18.1789 19.2655 18.3896 18.7568 18.3896 18.2263C18.3896 17.1163 17.4896 16.2263 16.3896 16.2263ZM0.389648 0.226318V2.22632H2.38965L5.98965 9.81632L4.62965 12.2663C4.47965 12.5463 4.38965 12.8763 4.38965 13.2263C4.38965 13.7568 4.60036 14.2655 4.97543 14.6405C5.35051 15.0156 5.85922 15.2263 6.38965 15.2263H18.3896V13.2263H6.80965C6.74334 13.2263 6.67976 13.2 6.63287 13.1531C6.58599 13.1062 6.55965 13.0426 6.55965 12.9763C6.55965 12.9263 6.56965 12.8863 6.58965 12.8563L7.48965 11.2263H14.9396C15.6896 11.2263 16.3496 10.8063 16.6896 10.1963L20.2696 3.72632C20.3396 3.56632 20.3896 3.39632 20.3896 3.22632C20.3896 2.9611 20.2843 2.70675 20.0968 2.51921C19.9092 2.33168 19.6549 2.22632 19.3896 2.22632H4.59965L3.65965 0.226318M6.38965 16.2263C5.27965 16.2263 4.38965 17.1163 4.38965 18.2263C4.38965 18.7568 4.60036 19.2655 4.97543 19.6405C5.35051 20.0156 5.85922 20.2263 6.38965 20.2263C6.92008 20.2263 7.42879 20.0156 7.80386 19.6405C8.17893 19.2655 8.38965 18.7568 8.38965 18.2263C8.38965 17.1163 7.48965 16.2263 6.38965 16.2263Z" fill="white"/>
</svg>
