<svg width="23" height="17" viewBox="0 0 23 17" fill="none" xmlns="http://www.w3.org/2000/svg">
<path d="M10.2607 16.4482H5.76074C4.24074 16.4482 2.94408 15.9249 1.87074 14.8782C0.797409 13.8249 0.260742 12.5416 0.260742 11.0282C0.260742 9.72824 0.650742 8.56824 1.43074 7.54824C2.21741 6.52824 3.24408 5.87824 4.51074 5.59824C4.93074 4.06491 5.76408 2.82491 7.01074 1.87824C8.26408 0.924909 9.68074 0.448242 11.2607 0.448242C13.2141 0.448242 14.8674 1.12824 16.2207 2.48824C17.5807 3.84158 18.2607 5.49491 18.2607 7.44824C19.4141 7.58158 20.3674 8.08158 21.1207 8.94824C21.8807 9.80158 22.2607 10.8016 22.2607 11.9482C22.2607 13.2016 21.8241 14.2649 20.9507 15.1382C20.0774 16.0116 19.0141 16.4482 17.7607 16.4482H12.2607V9.29824L13.8607 10.8482L15.2607 9.44824L11.2607 5.44824L7.26074 9.44824L8.66074 10.8482L10.2607 9.29824V16.4482Z" fill="white"/>
</svg>
